<svg xmlns="http://www.w3.org/2000/svg" xmlns:xlink="http://www.w3.org/1999/xlink" aria-hidden="true" role="img" class="iconify iconify--logos" width="37.07" height="36" preserveAspectRatio="xMidYMid meet" viewBox="0 0 256 228"><path fill="#00D8FF" d="M210.483 73.824a171.49 171.49 0 0 0-8.24-2.597c.465-1.9.893-3.777 1.273-5.621c6.238-30.281 2.16-54.676-11.769-62.708c-13.355-7.7-35.196.329-57.254 19.526a171.23 171.23 0 0 0-6.375 5.848a155.866 155.866 0 0 0-4.241-3.917C100.759 3.829 77.587-4.822 63.673 3.233C50.33 10.957 46.379 33.89 51.986 63.266a170.344 170.344 0 0 0 1.891 8.35c-3.273.93-6.436 1.924-9.468 2.987C18.503 83.658 0 98.833 0 114.546c0 16.25 19.675 32.503 46.26 42.376a150.19 150.19 0 0 0 6.836 2.13a167.434 167.434 0 0 0-2.004 8.969c-5.35 28.91-1.173 51.916 12.134 59.582c13.744 7.928 36.803-.24 59.28-19.894a145.767 145.767 0 0 0 5.342-4.923a168.064 168.064 0 0 0 6.92 6.114c21.413 18.522 42.64 26.02 55.864 18.33c13.732-7.954 18.22-32.622 12.494-62.768a140.79 140.79 0 0 0-1.696-7.592c1.6-.475 3.17-.98 4.71-1.515c27.546-9.953 47.732-25.892 47.732-42.478c0-15.805-19.248-31.093-49.082-41.143Z"/></svg>
