<svg xmlns="http://www.w3.org/2000/svg" width="206" height="231" viewBox="0 0 206 231">
  <path fill="#FFC131" d="M143.107 147.824c3.856 18.593-1.53 24.925-18.982 28.981c-17.452 4.056-47.252 4.7-54.573-12.689c-7.322-17.39 9.172-39.71 26.625-43.766c17.452-4.056 43.074 8.88 46.93 27.474Z"/>
  <path fill="#FFC131" d="M101.137 46.167c12.857 13.044 14.855 36.856 4.447 53.177c-10.408 16.322-29.238 19.384-42.095 6.34C50.632 92.64 48.634 68.828 59.042 52.507c10.408-16.322 31.238-19.384 42.095-6.34Z"/>
  <path fill="#FFC131" d="M163.744 83.792c3.598 18.824-8.327 36.93-26.642 40.45c-18.315 3.52-36.175-8.977-39.773-27.801c-3.598-18.824 8.327-36.93 26.642-40.45c18.315-3.52 36.175 8.977 39.773 27.801Z"/>
</svg>
